<svg xmlns="http://www.w3.org/2000/svg" aria-hidden="true" style="position:absolute;width:0;height:0;overflow:hidden">
	<defs>
		<symbol id="burger" viewBox="0 0 32 32">
			<path fill="#ff3e79" d="M16 0c8.837 0 16 7.163 16 16s-7.163 16-16 16S0 24.837 0 16 7.163 0 16 0z"
				style="fill:var(--color1, #ff3e79)" />
			<path fill="#fff"
				d="M8.8 10.4a.8.8 0 0 1 .8-.8h12.8a.8.8 0 1 1 0 1.6H9.6a.8.8 0 0 1-.8-.8zm0 5.6a.8.8 0 0 1 .8-.8H16a.8.8 0 1 1 0 1.6H9.6a.8.8 0 0 1-.8-.8zm.8 4.8a.8.8 0 1 0 0 1.6h9.6a.8.8 0 1 0 0-1.6H9.6z"
				style="fill:var(--color2, #fff)" />
		</symbol>
		<symbol id="logo" viewBox="0 0 60 32">
			<path
				d="M22.349.444a.57.57 0 0 0-.571.571v2.699a.57.57 0 0 0 .571.571h22.282c6.2 0 11.07 4.773 11.07 10.953 0 .175.142.317.317.317h3.221a.317.317 0 0 0 .317-.317c0-8.259-6.638-14.795-14.924-14.795H22.35zM4.351 15.824a.268.268 0 0 0-.268-.268H.713a.268.268 0 0 0-.268.268c0 8.357 6.259 15.256 14.353 15.708l25.964.023a.572.572 0 0 0 .572-.571v-2.886a.57.57 0 0 0-.571-.571H15.691C9.424 27.51 4.352 22.296 4.352 15.824z" />
			<path
				d="M17.229 24.444c1.677 0 3.074-.326 4.453-.996l.095-.089v-4.797l-.516.661a5.096 5.096 0 0 1-3.837 1.683c-2.811 0-5.635-1.817-5.635-5.29 0-2.624 1.947-5.413 5.536-5.413.716 0 2.457.169 3.933 1.736l.519.639V7.803l-.091-.09c-1.406-.704-2.839-1.047-4.474-1.047-2.796 0-4.979.736-6.716 2.249-1.102.948-2.941 3.073-2.941 6.651 0 2.645.942 4.711 2.955 6.503 1.872 1.642 3.949 2.374 6.719 2.374zM29.333 10.667h.835c.766 0 1.64.042 2.3.492.323.23.864.764.864 1.734 0 .716-.317 1.359-.84 1.76-.67.487-1.467.459-2.108.459h-1.053v-4.444zm1.877 7.67c1.978 0 3.527-.571 4.602-1.646 1.323-1.32 1.521-3.136 1.521-4.094 0-1.024-.243-3.023-1.871-4.469-1.335-1.17-2.759-1.462-4.769-1.462h-5.36v17.778h4.077v-6.107h1.8z" />
			<path
				d="M29.333 10.667v-.143h-.143v.143h.143zm3.136.492.083-.116-.003-.002-.08.118zm.025 3.493.084.116.003-.002-.087-.113zm-3.161.459h-.143v.143h.143v-.143zm6.48 1.581-.101-.101.101.101zm-.351-8.563.095-.107-.001-.001-.094.107zM25.333 6.667v-.143h-.143v.143h.143zm0 17.777h-.143v.143h.143v-.143zm4.077 0v.143h.143v-.143h-.143zm0-6.107v-.143h-.143v.143h.143zm-.077-7.528h.835v-.286h-.835v.286zm.836 0c.769 0 1.6.045 2.22.468l.161-.236c-.702-.478-1.618-.517-2.381-.517v.286zm2.217.466c.3.214.804.71.804 1.617h.286a2.211 2.211 0 0 0-.924-1.85l-.166.232zm.805 1.618c0 .674-.298 1.274-.783 1.646l.174.227c.56-.429.895-1.114.895-1.873h-.286zm-.781 1.643c-.626.454-1.372.431-2.024.431v.286c.629 0 1.477.033 2.192-.486l-.168-.231zm-2.024.432h-1.053v.286h1.053v-.286zm-.91.143v-4.444h-.286v4.444h.286zm1.734 3.369c2.006 0 3.595-.579 4.703-1.688l-.202-.202c-1.042 1.042-2.551 1.604-4.501 1.604v.286zm4.704-1.687c1.364-1.361 1.563-3.225 1.563-4.195h-.286c0 .945-.197 2.713-1.479 3.992l.202.202zm1.562-4.195c0-1.04-.246-3.089-1.919-4.576l-.19.214c1.584 1.407 1.824 3.354 1.824 4.363h.286zm-1.92-4.577c-1.372-1.203-2.838-1.498-4.863-1.498v.286c1.994 0 3.377.29 4.674 1.427l.188-.215zm-4.863-1.497h-5.36v.286h5.36v-.286zm-5.502.143v17.778h.286V6.667h-.286zm.142 17.92h4.077v-.286h-4.077v.286zm4.22-.143v-6.107h-.286v6.107h.286zm-.143-5.964h1.8v-.286h-1.8v.286zM49.563 15.062c-.886-.785-2.124-1.241-3.528-1.713-1.001-.348-1.552-.54-1.919-.875-.29-.246-.419-.514-.419-.867 0-.774.526-1.601 2.002-1.601 1.003 0 1.843.429 2.497 1.274l.26.336 2.153-2.74-.196-.197c-1.317-1.318-3.052-2.014-5.017-2.014-3.966 0-5.742 2.58-5.742 5.138 0 1.372.489 2.479 1.452 3.288.861.738 1.912 1.152 2.92 1.49l.114.038c.895.296 1.82.602 2.373 1.097.385.353.556.737.556 1.245 0 1.163-.916 1.945-2.28 1.945a3.635 3.635 0 0 1-3.248-2.011l-.196-.388-2.676 2.477.158.223c.854 1.209 2.78 3.237 6.089 3.237 3.649 0 6.197-2.346 6.197-5.704 0-1.921-.843-3.061-1.548-3.677z" />
		</symbol>
		<symbol id="phone" viewBox="0 0 32 32">
			<path fill="#ff3e79" d="M16 0c8.837 0 16 7.163 16 16s-7.163 16-16 16S0 24.837 0 16 7.163 0 16 0z"
				style="fill:var(--color1, #ff3e79)" />
			<path fill="#fff"
				d="m10.208 18.6 2.032-.232c.488-.056.968.112 1.312.456l1.472 1.472c2.264-1.152 4.12-3 5.272-5.272l-1.48-1.48a1.592 1.592 0 0 1-.456-1.312l.232-2.016A1.601 1.601 0 0 1 20.184 8.8h1.384c.904 0 1.656.752 1.6 1.656-.424 6.832-5.888 12.288-12.712 12.712-.904.056-1.656-.696-1.656-1.6v-1.384a1.586 1.586 0 0 1 1.408-1.584z"
				style="fill:var(--color2, #fff)" />
		</symbol>
		<symbol id="chat" viewBox="0 0 32 32">
			<path fill="#ff3e79" d="M16 0c8.837 0 16 7.163 16 16s-7.163 16-16 16S0 24.837 0 16 7.163 0 16 0z"
				style="fill:var(--color1, #ff3e79)" />
			<path fill="#fff"
				d="M22.4 8.8H9.6c-.88 0-1.592.72-1.592 1.6L8 24.8l3.2-4h11.2c.88 0 1.6-.72 1.6-1.6v-8.8c0-.88-.72-1.6-1.6-1.6zm-5.6 8.8H12c-.44 0-.8-.36-.8-.8s.36-.8.8-.8h4.8c.44 0 .8.36.8.8s-.36.8-.8.8zm3.2-4h-8c-.44 0-.8-.36-.8-.8s.36-.8.8-.8h8c.44 0 .8.36.8.8s-.36.8-.8.8z"
				style="fill:var(--color2, #fff)" />
		</symbol>
		<symbol id="profile" viewBox="0 0 32 32">
			<path fill="#ff3e79" d="M16 0c8.837 0 16 7.163 16 16s-7.163 16-16 16S0 24.837 0 16 7.163 0 16 0z"
				style="fill:var(--color1, #ff3e79)" />
			<path fill="#fff"
				d="M16.4 15.2a3.6 3.6 0 1 0 0-7.2 3.6 3.6 0 0 0 0 7.2zM8.013 21.289c-.104.584.415 1.111 1.058 1.111h13.857c.664 0 1.162-.527 1.058-1.111C23.384 17.92 20.045 16 15.999 16s-7.385 1.92-7.986 5.289z"
				style="fill:var(--color2, #fff)" />
		</symbol>
		<symbol id="repair" viewBox="0 0 32 32">
			<path fill="#ff3e79" d="M16 0c8.837 0 16 7.163 16 16s-7.163 16-16 16S0 24.837 0 16 7.163 0 16 0z"
				style="fill:var(--color1, #ff3e79)" />
			<path fill="#fff"
				d="m14.606 18.767.327-.327-1.373-1.374-.327.327-.164-.164c-.262-.294-.523-.458-.785-.425-.196 0-.36.131-.491.327-.196.327-.098.687-.065.916 0 .065.033.098.033.164 0 .098 0 .229-.229.262-.327.098-.752.196-1.177.425-.589.327-.981.622-1.21.916C7.935 21.384 8 22.725 8 22.79c0 .098.033.164.098.196l.883.916c.065.065.131.098.196.098h.098c.327 0 1.504-.065 2.878-1.145.294-.229.589-.621.916-1.21.229-.392.36-.818.425-1.177.065-.229.164-.229.262-.229.033 0 .098.033.163.033.131.033.262.065.425.065s.327-.033.491-.131c.196-.131.327-.294.36-.491.033-.262-.098-.523-.392-.752l-.196-.196zM21.507 11.903l.908-.442c.034-.034.101-.068.134-.102l1.379-1.87c.101-.136.101-.34-.034-.442l-.941-.952c-.101-.102-.303-.136-.437-.034l-1.849 1.394a.469.469 0 0 0-.101.136l-.437.918-3.329 3.263 1.412 1.428 3.295-3.297z"
				style="fill:var(--color2, #fff)" />
			<path fill="#fff"
				d="M22.282 18.436c-.791-.833-1.931-1.133-3.007-.833l-5.159-5.464c.063-.3.095-.566.095-.866 0-.833-.317-1.666-.918-2.299a2.958 2.958 0 0 0-3.197-.8.434.434 0 0 0-.19.267c0 .1.032.2.095.3l1.551 1.633c.348.366.348 1 0 1.366s-.95.367-1.298 0l-1.551-1.633c-.095-.067-.19-.1-.316-.067-.095 0-.19.1-.222.2-.38 1.166-.095 2.466.728 3.332.57.633 1.393.966 2.216.966a3.2 3.2 0 0 0 .791-.1l5.191 5.464a3.471 3.471 0 0 0 .791 3.165 2.934 2.934 0 0 0 2.184.933c.348 0 .665-.067 1.013-.167.095-.033.19-.133.222-.233s0-.233-.095-.3l-1.551-1.633c-.158-.167-.285-.433-.285-.7s.095-.5.285-.7c.19-.2.411-.3.665-.3s.475.1.665.3l1.551 1.633c.095.067.19.1.285.1.095-.033.19-.1.222-.2.095-.333.158-.7.158-1.066 0-.866-.316-1.699-.918-2.299z"
				style="fill:var(--color2, #fff)" />
		</symbol>
		<symbol id="checkstatus" viewBox="0 0 32 32">
			<path fill="#ff3e79" d="M16 0c8.837 0 16 7.163 16 16s-7.163 16-16 16S0 24.837 0 16 7.163 0 16 0z"
				style="fill:var(--color1, #ff3e79)" />
			<path fill="#fff"
				d="M9.6 8.8v14a1.2 1.2 0 0 1 1.2 1.2h.8a1.2 1.2 0 1 1 2.4 0h.8a1.2 1.2 0 1 1 2.4 0h.8a1.2 1.2 0 1 1 2.4 0h.8a1.2 1.2 0 0 1 1.2-1.2v-14a.8.8 0 0 0-.8-.8H10.4a.8.8 0 0 0-.8.8zm7.533 8.631a3.386 3.386 0 0 1-2.469.475c-1.442-.268-2.592-1.48-2.776-2.937a3.455 3.455 0 0 1 3.995-3.865c1.442.23 2.6 1.411 2.838 2.845.146.89-.061 1.71-.491 2.393l1.687 1.679a.776.776 0 0 1-1.097 1.097l-1.687-1.687zm-3.768-2.984a1.883 1.883 0 1 1 3.765.001 1.883 1.883 0 0 1-3.765-.001z"
				style="fill:var(--color2, #fff)" />
		</symbol>
		<symbol id="close" viewBox="0 0 32 32">
			<path fill="#ff3e79" d="M16 0c8.837 0 16 7.163 16 16s-7.163 16-16 16S0 24.837 0 16 7.163 0 16 0z"
				style="fill:var(--color1, #ff3e79)" />
			<path fill="#fff"
				d="M11.035 9.806a.8.8 0 0 0-1.131 0l-.098.098a.8.8 0 0 0 0 1.131L14.771 16l-4.965 4.965a.8.8 0 0 0 0 1.131l.098.098a.8.8 0 0 0 1.131 0L16 17.229l4.965 4.965a.8.8 0 0 0 1.131 0l.098-.098a.8.8 0 0 0 0-1.131L17.229 16l4.965-4.965a.8.8 0 0 0 0-1.131l-.098-.098a.8.8 0 0 0-1.131 0L16 14.771l-4.965-4.965z"
				style="fill:var(--color2, #fff)" />
		</symbol>
		<symbol id="search" viewBox="0 0 32 32">
			<path fill="#ff3e79" d="M16 0c8.837 0 16 7.163 16 16s-7.163 16-16 16S0 24.837 0 16 7.163 0 16 0z"
				style="fill:var(--color1, #ff3e79)" />
			<path fill="#fff"
				d="M18.8 17.6h-.632l-.224-.216a5.2 5.2 0 0 0 1.184-4.272c-.376-2.224-2.232-4-4.472-4.272a5.204 5.204 0 0 0-5.816 5.816c.272 2.24 2.048 4.096 4.272 4.472a5.2 5.2 0 0 0 4.272-1.184l.216.224v.632l3.408 3.4a.835.835 0 0 0 1.184 0l.008-.008a.835.835 0 0 0 0-1.184L18.8 17.6zm-4.8 0c-1.992 0-3.6-1.608-3.6-3.6s1.608-3.6 3.6-3.6 3.6 1.608 3.6 3.6-1.608 3.6-3.6 3.6z"
				style="fill:var(--color2, #fff)" />
		</symbol>
		<symbol id="expand-down" viewBox="0 0 23 32">
			<path
				d="m19.287.698-7.651 7.651L3.985.698a2.164 2.164 0 1 0-3.06 3.06l8.547 8.547a3.06 3.06 0 0 0 4.328 0l8.547-8.547a2.164 2.164 0 1 0-3.06-3.06zm0 18.363-7.651 7.651-7.651-7.651a2.164 2.164 0 1 0-3.06 3.06l8.547 8.547a3.06 3.06 0 0 0 4.328 0l8.547-8.547a2.164 2.164 0 1 0-3.06-3.06z" />
		</symbol>
		<symbol id="go" viewBox="0 0 32 32">
			<path fill="none" stroke="#ff3e79" stroke-width="1.6"
				d="M16 .8C24.395.8 31.2 7.605 31.2 16S24.395 31.2 16 31.2.8 24.395.8 16 7.605.8 16 .8z"
				style="stroke:var(--color1, #ff3e79)" />
			<path fill="#ff3e79"
				d="m17.2 16-3.034-3.034a.8.8 0 0 1 0-1.131l.069-.069a.8.8 0 0 1 1.131 0l3.669 3.669a.8.8 0 0 1 0 1.131l-3.669 3.669a.8.8 0 0 1-1.131 0l-.069-.069a.8.8 0 0 1 0-1.131l3.034-3.034z"
				style="fill:var(--color1, #ff3e79)" />
		</symbol>
	</defs>
</svg>